<svg width="16" height="16" viewBox="0 0 16 16" fill="none" xmlns="http://www.w3.org/2000/svg">
<g clip-path="url(#clip0_17_1986)">
<path d="M8.00049 1.60059V14.4006" stroke="#666666" stroke-width="1.28" stroke-linecap="round" stroke-linejoin="round"/>
<path d="M11.2002 3.52051H6.40016C5.80607 3.52051 5.23632 3.75651 4.81624 4.17659C4.39616 4.59667 4.16016 5.16642 4.16016 5.76051C4.16016 6.35459 4.39616 6.92435 4.81624 7.34443C5.23632 7.76451 5.80607 8.00051 6.40016 8.00051H9.60016C10.1942 8.00051 10.764 8.23651 11.1841 8.65659C11.6042 9.07667 11.8402 9.64642 11.8402 10.2405C11.8402 10.8346 11.6042 11.4043 11.1841 11.8244C10.764 12.2445 10.1942 12.4805 9.60016 12.4805H4.16016" stroke="#666666" stroke-width="1.28" stroke-linecap="round" stroke-linejoin="round"/>
</g>
<defs>
<clipPath id="clip0_17_1986">
<rect width="15.36" height="15.36" fill="white" transform="translate(0.320312 0.320312)"/>
</clipPath>
</defs>
</svg>
