<svg width="16" height="16" viewBox="0 0 16 16" fill="none" xmlns="http://www.w3.org/2000/svg">
<path d="M14.2998 10.9979V12.9479C14.3006 13.1289 14.2635 13.3081 14.191 13.4739C14.1184 13.6398 14.0121 13.7887 13.8787 13.9111C13.7453 14.0335 13.5878 14.1266 13.4163 14.1846C13.2448 14.2426 13.0631 14.2642 12.8828 14.2479C10.8827 14.0305 8.96138 13.3471 7.27333 12.2524C5.70282 11.2544 4.3713 9.92288 3.37333 8.35237C2.27482 6.65665 1.59119 4.72601 1.37783 2.71687C1.36159 2.53712 1.38295 2.35596 1.44056 2.18492C1.49817 2.01389 1.59076 1.85672 1.71243 1.72342C1.83411 1.59013 1.98221 1.48363 2.1473 1.41071C2.31239 1.33779 2.49086 1.30004 2.67133 1.29987H4.62133C4.93678 1.29676 5.2426 1.40847 5.48178 1.61416C5.72096 1.81986 5.87718 2.10551 5.92133 2.41787C6.00364 3.04191 6.15628 3.65464 6.37633 4.24437C6.46379 4.47702 6.48271 4.72986 6.43087 4.97294C6.37903 5.21602 6.2586 5.43914 6.08383 5.61587L5.25833 6.44137C6.18365 8.06867 7.53103 9.41606 9.15833 10.3414L9.98383 9.51587C10.1606 9.34111 10.3837 9.22067 10.6268 9.16883C10.8698 9.11699 11.1227 9.13591 11.3553 9.22337C11.9451 9.44343 12.5578 9.59606 13.1818 9.67837C13.4976 9.72291 13.7859 9.88195 13.9921 10.1252C14.1982 10.3685 14.3077 10.6791 14.2998 10.9979Z" stroke="#666666" stroke-width="1.3" stroke-linecap="round" stroke-linejoin="round"/>
</svg>
