<svg width="16" height="16" viewBox="0 0 16 16" fill="none" xmlns="http://www.w3.org/2000/svg">
<path d="M3.25 4.5498V12.3498H11.05" stroke="#666666" stroke-width="1.3" stroke-linecap="round" stroke-linejoin="round"/>
<path d="M3.25 12.3502L7.15 8.4502" stroke="#666666" stroke-width="1.3" stroke-linecap="round" stroke-linejoin="round"/>
<path d="M3.9002 1.9502H2.6002C2.24121 1.9502 1.9502 2.24121 1.9502 2.6002V3.9002C1.9502 4.25918 2.24121 4.5502 2.6002 4.5502H3.9002C4.25918 4.5502 4.5502 4.25918 4.5502 3.9002V2.6002C4.5502 2.24121 4.25918 1.9502 3.9002 1.9502Z" stroke="#666666" stroke-width="1.3" stroke-linecap="round" stroke-linejoin="round"/>
<path d="M12.9998 11.0498H11.6998C11.3408 11.0498 11.0498 11.3408 11.0498 11.6998V12.9998C11.0498 13.3588 11.3408 13.6498 11.6998 13.6498H12.9998C13.3588 13.6498 13.6498 13.3588 13.6498 12.9998V11.6998C13.6498 11.3408 13.3588 11.0498 12.9998 11.0498Z" stroke="#666666" stroke-width="1.3" stroke-linecap="round" stroke-linejoin="round"/>
</svg>
