<svg width="17" height="17" viewBox="0 0 17 17" fill="none" xmlns="http://www.w3.org/2000/svg">
<path d="M6.75 1.3501H9.45" stroke="#666666" stroke-width="1.35" stroke-linecap="round" stroke-linejoin="round"/>
<path d="M8.1001 9.45V6.75" stroke="#666666" stroke-width="1.35" stroke-linecap="round" stroke-linejoin="round"/>
<path d="M2.7002 8.77497C2.86548 7.46275 3.50659 6.25682 4.50194 5.38589C5.49729 4.51496 6.77765 4.0396 8.10019 4.04997C8.97368 4.0509 9.8339 4.26371 10.6071 4.67013C11.3802 5.07656 12.0433 5.66448 12.5393 6.38346C13.0353 7.10244 13.3495 7.93101 13.455 8.79811C13.5604 9.6652 13.4539 10.5449 13.1447 11.3618C12.8354 12.1787 12.3326 12.9084 11.6794 13.4883C11.0262 14.0682 10.242 14.481 9.39421 14.6912C8.54641 14.9015 7.66026 14.9029 6.81178 14.6954C5.96329 14.4879 5.17781 14.0777 4.5227 13.5L2.7002 11.88" stroke="#666666" stroke-width="1.35" stroke-linecap="round" stroke-linejoin="round"/>
<path d="M6.0752 11.4751H2.7002V14.8501" stroke="#666666" stroke-width="1.35" stroke-linecap="round" stroke-linejoin="round"/>
</svg>
