<svg width="14" height="15" viewBox="0 0 14 15" fill="none" xmlns="http://www.w3.org/2000/svg">
<path d="M12.6328 0.5H1.36719C0.612111 0.5 0 1.11211 0 1.86719V13.1328C0 13.8879 0.612111 14.5 1.36719 14.5H12.6328C13.3879 14.5 14 13.8879 14 13.1328V1.86719C14 1.11211 13.3879 0.5 12.6328 0.5Z" fill="#666666"/>
<path d="M12.6328 0.5H1.36719C0.612111 0.5 0 1.11211 0 1.86719V13.1328C0 13.8879 0.612111 14.5 1.36719 14.5H12.6328C13.3879 14.5 14 13.8879 14 13.1328V1.86719C14 1.11211 13.3879 0.5 12.6328 0.5Z" fill="#666666"/>
<path fill-rule="evenodd" clip-rule="evenodd" d="M8.6663 11.6405V13.0094C8.88882 13.1234 9.15201 13.209 9.45585 13.266C9.7597 13.323 10.0799 13.3516 10.4166 13.3516C10.7447 13.3516 11.0563 13.3202 11.3516 13.2574C11.6469 13.1947 11.9058 13.0913 12.1283 12.9473C12.3509 12.8033 12.527 12.6151 12.6568 12.3827C12.7866 12.1502 12.8516 11.8629 12.8516 11.5207C12.8516 11.2726 12.8145 11.0552 12.7403 10.8684C12.6661 10.6816 12.5591 10.5155 12.4193 10.3701C12.2796 10.2246 12.1119 10.0941 11.9165 9.97863C11.7211 9.86313 11.5007 9.75405 11.2553 9.65141C11.0756 9.57725 10.9144 9.50525 10.7718 9.43539C10.6291 9.3655 10.5079 9.29421 10.408 9.22151C10.3082 9.14877 10.2311 9.07177 10.1769 8.99051C10.1227 8.90922 10.0956 8.81726 10.0956 8.71458C10.0956 8.62049 10.1199 8.53564 10.1684 8.46007C10.2169 8.38449 10.2854 8.31963 10.3738 8.26543C10.4622 8.21127 10.5706 8.16918 10.699 8.13924C10.8274 8.1093 10.97 8.09434 11.127 8.09434C11.2411 8.09434 11.3616 8.1029 11.4886 8.11999C11.6155 8.13711 11.7432 8.1635 11.8716 8.19912C12 8.23478 12.1248 8.27971 12.246 8.33388C12.3673 8.38807 12.4792 8.4508 12.582 8.52211V7.24308C12.3737 7.16323 12.1462 7.10406 11.8994 7.06556C11.6526 7.02706 11.3694 7.00781 11.0499 7.00781C10.7247 7.00781 10.4166 7.04276 10.1256 7.11262C9.83459 7.18248 9.57854 7.29156 9.35741 7.43984C9.13631 7.58816 8.96159 7.77707 8.83321 8.00665C8.70483 8.2362 8.64062 8.51068 8.64062 8.83008C8.64062 9.23789 8.75831 9.58581 8.99369 9.87385C9.22903 10.1619 9.58636 10.4057 10.0657 10.6053C10.254 10.6823 10.4294 10.7579 10.592 10.832C10.7547 10.9062 10.8952 10.9832 11.0135 11.063C11.1319 11.1429 11.2254 11.2299 11.2939 11.324C11.3623 11.4181 11.3966 11.525 11.3966 11.6448C11.3966 11.7332 11.3752 11.8152 11.3324 11.8907C11.2896 11.9663 11.2247 12.0319 11.1377 12.0875C11.0506 12.1431 10.9422 12.1866 10.8124 12.218C10.6826 12.2494 10.5307 12.265 10.3567 12.265C10.06 12.265 9.76612 12.213 9.4751 12.1089C9.18411 12.0048 8.9145 11.8487 8.6663 11.6405ZM6.36508 8.26787H8.12109V7.14453H3.22656V8.26787H4.97399V13.2695H6.36508V8.26787Z" fill="white"/>
</svg>
